# xmcd
#
# Track frame offsets:
#	180
#	19240
#	25514
#	46702
#	68806
#	85221
#	102803
#	116316
#	130655
#	138192
#	156348
#	171717
#	186512
#	206915
#	222354
#
# Disc length: 3237 seconds
#
# Revision: 1
# Processed by: cddbd v1.5.2PL0 Copyright (c) Steve Scherf et al.
# Submitted via: audiograbber 1.83.01
#
DISCID=d10ca30f
DTITLE=Klaus Jürgen Spannhoff and Friends - Mixed Emotions...
DYEAR=1995
DGENRE=Blues
TTITLE0=Still Got The Blues
TTITLE1=Cannonball Rag
TTITLE2=St. James Infirmary
TTITLE3=Tears In Heaven
TTITLE4=Windy And Warm
TTITLE5=Rock Your Baby
TTITLE6=Homage To Lisa
TTITLE7=Talk To Me Baby
TTITLE8=Hollerin' For My Crow Jane
TTITLE9=Trouble In Mind
TTITLE10=Yazoo Basin Boogie
TTITLE11=Roll 'Em Pete
TTITLE12=Ol' 55
TTITLE13=Walkin' Blues
TTITLE14=Moments In Salzburg
EXTD=
EXTT0=
EXTT1=
EXTT2=
EXTT3=
EXTT4=
EXTT5=
EXTT6=
EXTT7=
EXTT8=
EXTT9=
EXTT10=
EXTT11=
EXTT12=
EXTT13=
EXTT14=
PLAYORDER=
